<svg width="96" height="96" viewBox="0 0 96 96" fill="none" xmlns="http://www.w3.org/2000/svg">
  <rect x="10" y="10" width="76" height="76" rx="24" fill="#EFF6FF"/>
  <rect x="24" y="22" width="48" height="52" rx="16" fill="#3B82F6"/>
  <path d="M32 34C32 30.6863 34.6863 28 38 28H58C61.3137 28 64 30.6863 64 34V68H32V34Z" fill="#0F172A" fill-opacity="0.14"/>
  <path d="M40 28C40 24.6863 42.6863 22 46 22H50C53.3137 22 56 24.6863 56 28V31H40V28Z" fill="#DBEAFE"/>
  <rect x="29" y="37" width="38" height="28" rx="10" fill="white"/>
  <path d="M42 46H54" stroke="#3B82F6" stroke-width="4" stroke-linecap="round"/>
  <path d="M48 40V52" stroke="#3B82F6" stroke-width="4" stroke-linecap="round"/>
  <circle cx="67" cy="67" r="11" fill="#0F9F6E"/>
  <path d="M63.5 67L66.5 70L71 64.5" stroke="white" stroke-width="3" stroke-linecap="round" stroke-linejoin="round"/>
  <path d="M34 74H62" stroke="#DBEAFE" stroke-width="4" stroke-linecap="round"/>
</svg>
